{
  "accessors": [
    {
      "bufferView": 2,
      "componentType": 5126,
      "count": 3196,
      "max": [
        27.375463485717773,
        16.339242935180664,
        6.0
      ],
      "min": [
        17.64299201965332,
        15.072175979614258,
        -3.068480793899653e-07
      ],
      "type": "VEC3"
    },
    {
      "bufferView": 2,
      "byteOffset": 38352,
      "componentType": 5126,
      "count": 3196,
      "max": [
        1.0,
        1.0,
        1.0
      ],
      "min": [
        -1.0,
        -1.0,
        -1.0
      ],
      "type": "VEC3"
    },
    {
      "bufferView": 1,
      "componentType": 5126,
      "count": 3196,
      "max": [
        0.9995005130767822,
        0.9995004534721375
      ],
      "min": [
        0.0004995167255401611,
        0.0004994869232177734
      ],
      "type": "VEC2"
    },
    {
      "bufferView": 0,
      "componentType": 5125,
      "count": 9036,
      "type": "SCALAR"
    },
    {
      "bufferView": 2,
      "byteOffset": 76704,
      "componentType": 5126,
      "count": 36,
      "max": [
        25.63550567626953,
        15.178593635559082,
        3.554807186126709
      ],
      "min": [
        25.435504913330078,
        14.819275856018066,
        2.205260753631592
      ],
      "type": "VEC3"
    },
    {
      "bufferView": 2,
      "byteOffset": 77136,
      "componentType": 5126,
      "count": 36,
      "max": [
        1.0,
        0.9937366843223572,
        0.9593661427497864
      ],
      "min": [
        -1.0,
        -0.9942071437835693,
        -0.8320472836494446
      ],
      "type": "VEC3"
    },
    {
      "bufferView": 0,
      "byteOffset": 36144,
      "componentType": 5125,
      "count": 60,
      "type": "SCALAR"
    },
    {
      "bufferView": 2,
      "byteOffset": 77568,
      "componentType": 5126,
      "count": 1485,
      "max": [
        23.602535247802734,
        15.169695854187012,
        1.4564732313156128
      ],
      "min": [
        23.353351593017578,
        14.969696044921875,
        1.2072904109954834
      ],
      "type": "VEC3"
    },
    {
      "bufferView": 2,
      "byteOffset": 95388,
      "componentType": 5126,
      "count": 1485,
      "max": [
        1.0,
        1.0,
        1.0
      ],
      "min": [
        -1.0,
        -1.0,
        -1.0
      ],
      "type": "VEC3"
    },
    {
      "bufferView": 1,
      "byteOffset": 25568,
      "componentType": 5126,
      "count": 1485,
      "max": [
        0.9999999403953552,
        0.9995005130767822
      ],
      "min": [
        -5.960464477539063e-08,
        0.0004994869232177734
      ],
      "type": "VEC2"
    },
    {
      "bufferView": 0,
      "byteOffset": 36384,
      "componentType": 5125,
      "count": 3426,
      "type": "SCALAR"
    },
    {
      "bufferView": 2,
      "byteOffset": 113208,
      "componentType": 5126,
      "count": 1167,
      "max": [
        19.22398567199707,
        15.174932479858398,
        1.4564732313156128
      ],
      "min": [
        18.974802017211914,
        14.974932670593262,
        1.2072904109954834
      ],
      "type": "VEC3"
    },
    {
      "bufferView": 2,
      "byteOffset": 127212,
      "componentType": 5126,
      "count": 1167,
      "max": [
        1.0,
        1.0,
        1.0
      ],
      "min": [
        -1.0,
        -1.0,
        -1.0
      ],
      "type": "VEC3"
    },
    {
      "bufferView": 1,
      "byteOffset": 37448,
      "componentType": 5126,
      "count": 1167,
      "max": [
        0.9999999403953552,
        0.9995005130767822
      ],
      "min": [
        -0.20371586084365845,
        0.0004994869232177734
      ],
      "type": "VEC2"
    },
    {
      "bufferView": 0,
      "byteOffset": 50088,
      "componentType": 5125,
      "count": 3426,
      "type": "SCALAR"
    },
    {
      "bufferView": 2,
      "byteOffset": 141216,
      "componentType": 5126,
      "count": 1483,
      "max": [
        23.603002548217773,
        15.169342041015625,
        4.861158847808838
      ],
      "min": [
        23.353818893432617,
        14.969342231750488,
        4.611976146697998
      ],
      "type": "VEC3"
    },
    {
      "bufferView": 2,
      "byteOffset": 159012,
      "componentType": 5126,
      "count": 1483,
      "max": [
        1.0,
        1.0,
        1.0
      ],
      "min": [
        -1.0,
        -1.0,
        -1.0
      ],
      "type": "VEC3"
    },
    {
      "bufferView": 1,
      "byteOffset": 46784,
      "componentType": 5126,
      "count": 1483,
      "max": [
        0.9999999403953552,
        0.9995005130767822
      ],
      "min": [
        -5.960464477539063e-08,
        0.0004994869232177734
      ],
      "type": "VEC2"
    },
    {
      "bufferView": 0,
      "byteOffset": 63792,
      "componentType": 5125,
      "count": 3426,
      "type": "SCALAR"
    },
    {
      "bufferView": 2,
      "byteOffset": 176808,
      "componentType": 5126,
      "count": 1165,
      "max": [
        19.22398567199707,
        15.174932479858398,
        4.861158847808838
      ],
      "min": [
        18.974802017211914,
        14.974932670593262,
        4.611976146697998
      ],
      "type": "VEC3"
    },
    {
      "bufferView": 2,
      "byteOffset": 190788,
      "componentType": 5126,
      "count": 1165,
      "max": [
        1.0,
        1.0,
        1.0
      ],
      "min": [
        -1.0,
        -1.0,
        -1.0
      ],
      "type": "VEC3"
    },
    {
      "bufferView": 1,
      "byteOffset": 58648,
      "componentType": 5126,
      "count": 1165,
      "max": [
        0.9999999403953552,
        0.9995005130767822
      ],
      "min": [
        -0.20371586084365845,
        0.0004994869232177734
      ],
      "type": "VEC2"
    },
    {
      "bufferView": 0,
      "byteOffset": 77496,
      "componentType": 5125,
      "count": 3426,
      "type": "SCALAR"
    },
    {
      "bufferView": 2,
      "byteOffset": 204768,
      "componentType": 5126,
      "count": 256,
      "max": [
        50.4736328125,
        15.582749366760254,
        4.333440780639648
      ],
      "min": [
        48.95640563964844,
        14.475778579711914,
        1.7629832029342651
      ],
      "type": "VEC3"
    },
    {
      "bufferView": 2,
      "byteOffset": 207840,
      "componentType": 5126,
      "count": 256,
      "max": [
        1.0,
        1.0,
        0.9999980926513672
      ],
      "min": [
        -1.0,
        -0.9999757409095764,
        -0.9999999403953552
      ],
      "type": "VEC3"
    },
    {
      "bufferView": 1,
      "byteOffset": 67968,
      "componentType": 5126,
      "count": 256,
      "max": [
        0.9995005130767822,
        0.9995005130767822
      ],
      "min": [
        0.0004994869232177734,
        0.0004990994930267334
      ],
      "type": "VEC2"
    },
    {
      "bufferView": 0,
      "byteOffset": 91200,
      "componentType": 5125,
      "count": 576,
      "type": "SCALAR"
    },
    {
      "bufferView": 2,
      "byteOffset": 210912,
      "componentType": 5126,
      "count": 4257,
      "max": [
        23.899991989135742,
        15.439557075500488,
        4.980564117431641
      ],
      "min": [
        18.71258544921875,
        14.93055534362793,
        0.9805642366409302
      ],
      "type": "VEC3"
    },
    {
      "bufferView": 2,
      "byteOffset": 261996,
      "componentType": 5126,
      "count": 4257,
      "max": [
        1.0,
        0.9996806979179382,
        1.0
      ],
      "min": [
        -1.0,
        -1.0,
        -1.0
      ],
      "type": "VEC3"
    },
    {
      "bufferView": 1,
      "byteOffset": 70016,
      "componentType": 5126,
      "count": 4257,
      "max": [
        1.0094953775405884,
        0.9995005130767822
      ],
      "min": [
        0.0005045118741691113,
        0.0004995167255401611
      ],
      "type": "VEC2"
    },
    {
      "bufferView": 0,
      "byteOffset": 93504,
      "componentType": 5125,
      "count": 11652,
      "type": "SCALAR"
    },
    {
      "bufferView": 2,
      "byteOffset": 313080,
      "componentType": 5126,
      "count": 3596,
      "max": [
        23.899991989135742,
        15.439557075500488,
        4.980564117431641
      ],
      "min": [
        18.71258544921875,
        14.93055534362793,
        0.9805642366409302
      ],
      "type": "VEC3"
    },
    {
      "bufferView": 2,
      "byteOffset": 356232,
      "componentType": 5126,
      "count": 3596,
      "max": [
        1.0,
        1.0,
        1.0
      ],
      "min": [
        -1.0,
        -1.0,
        -1.0
      ],
      "type": "VEC3"
    },
    {
      "bufferView": 1,
      "byteOffset": 104072,
      "componentType": 5126,
      "count": 3596,
      "max": [
        1.009495496749878,
        0.9995005130767822
      ],
      "min": [
        0.0005045118741691113,
        0.0004995167255401611
      ],
      "type": "VEC2"
    },
    {
      "bufferView": 0,
      "byteOffset": 140112,
      "componentType": 5125,
      "count": 9456,
      "type": "SCALAR"
    }
  ],
  "asset": {
    "extras": {
      "author": "James (https://sketchfab.com/james)",
      "license": "CC-BY-4.0 (http://creativecommons.org/licenses/by/4.0/)",
      "source": "https://sketchfab.com/3d-models/socket-d3a37b2c158b4418843522fb41e3fc1f",
      "title": "Socket"
    },
    "generator": "Sketchfab-11.17.0",
    "version": "2.0"
  },
  "bufferViews": [
    {
      "buffer": 0,
      "byteLength": 177936,
      "name": "floatBufferViews",
      "target": 34963
    },
    {
      "buffer": 0,
      "byteLength": 132840,
      "byteOffset": 177936,
      "byteStride": 8,
      "name": "floatBufferViews",
      "target": 34962
    },
    {
      "buffer": 0,
      "byteLength": 399384,
      "byteOffset": 310776,
      "byteStride": 12,
      "name": "floatBufferViews",
      "target": 34962
    }
  ],
  "buffers": [
    {
      "byteLength": 710160,
      "uri": "scene.bin"
    }
  ],
  "materials": [
    {
      "doubleSided": true,
      "name": "material_0",
      "pbrMetallicRoughness": {
        "baseColorFactor": [
          0.5,
          0.5,
          0.5,
          1.0
        ],
        "metallicFactor": 0.0,
        "roughnessFactor": 0.9
      }
    },
    {
      "doubleSided": true,
      "name": "Reflection_Chrom",
      "pbrMetallicRoughness": {
        "baseColorFactor": [
          0.756863,
          0.756863,
          0.756863,
          1.0
        ],
        "metallicFactor": 0.0,
        "roughnessFactor": 0.9
      }
    },
    {
      "doubleSided": true,
      "name": "Metal_Grey_Plain",
      "pbrMetallicRoughness": {
        "baseColorFactor": [
          0.439216,
          0.439216,
          0.439216,
          1.0
        ],
        "metallicFactor": 0.0,
        "roughnessFactor": 0.9
      }
    },
    {
      "doubleSided": true,
      "name": "Reflection_Ch1",
      "pbrMetallicRoughness": {
        "baseColorFactor": [
          0.486275,
          0.486275,
          0.486275,
          1.0
        ],
        "metallicFactor": 0.0,
        "roughnessFactor": 0.9
      }
    }
  ],
  "meshes": [
    {
      "name": "Object_0",
      "primitives": [
        {
          "attributes": {
            "NORMAL": 1,
            "POSITION": 0,
            "TEXCOORD_0": 2
          },
          "indices": 3,
          "material": 3,
          "mode": 4
        }
      ]
    },
    {
      "name": "Object_1",
      "primitives": [
        {
          "attributes": {
            "NORMAL": 5,
            "POSITION": 4
          },
          "indices": 6,
          "material": 0,
          "mode": 4
        }
      ]
    },
    {
      "name": "Object_2",
      "primitives": [
        {
          "attributes": {
            "NORMAL": 8,
            "POSITION": 7,
            "TEXCOORD_0": 9
          },
          "indices": 10,
          "material": 2,
          "mode": 4
        }
      ]
    },
    {
      "name": "Object_3",
      "primitives": [
        {
          "attributes": {
            "NORMAL": 12,
            "POSITION": 11,
            "TEXCOORD_0": 13
          },
          "indices": 14,
          "material": 2,
          "mode": 4
        }
      ]
    },
    {
      "name": "Object_4",
      "primitives": [
        {
          "attributes": {
            "NORMAL": 16,
            "POSITION": 15,
            "TEXCOORD_0": 17
          },
          "indices": 18,
          "material": 2,
          "mode": 4
        }
      ]
    },
    {
      "name": "Object_5",
      "primitives": [
        {
          "attributes": {
            "NORMAL": 20,
            "POSITION": 19,
            "TEXCOORD_0": 21
          },
          "indices": 22,
          "material": 2,
          "mode": 4
        }
      ]
    },
    {
      "name": "Object_6",
      "primitives": [
        {
          "attributes": {
            "NORMAL": 24,
            "POSITION": 23,
            "TEXCOORD_0": 25
          },
          "indices": 26,
          "material": 1,
          "mode": 4
        }
      ]
    },
    {
      "name": "Object_7",
      "primitives": [
        {
          "attributes": {
            "NORMAL": 28,
            "POSITION": 27,
            "TEXCOORD_0": 29
          },
          "indices": 30,
          "material": 1,
          "mode": 4
        }
      ]
    },
    {
      "name": "Object_8",
      "primitives": [
        {
          "attributes": {
            "NORMAL": 32,
            "POSITION": 31,
            "TEXCOORD_0": 33
          },
          "indices": 34,
          "material": 1,
          "mode": 4
        }
      ]
    }
  ],
  "nodes": [
    {
      "children": [
        1
      ],
      "matrix": [
        1.0,
        0.0,
        0.0,
        0.0,
        0.0,
        2.220446049250313e-16,
        -1.0,
        0.0,
        0.0,
        1.0,
        2.220446049250313e-16,
        0.0,
        0.0,
        0.0,
        0.0,
        1.0
      ],
      "name": "Sketchfab_model"
    },
    {
      "children": [
        2,
        5,
        8,
        11,
        14,
        17,
        20,
        23
      ],
      "matrix": [
        1.0,
        0.0,
        0.0,
        0.0,
        0.0,
        1.0,
        0.0,
        0.0,
        0.0,
        0.0,
        1.0,
        0.0,
        22.509227752685547,
        15.411015510559082,
        2.999999761581421,
        1.0
      ],
      "name": "Group01"
    },
    {
      "children": [
        3
      ],
      "matrix": [
        1.0,
        0.0,
        0.0,
        0.0,
        0.0,
        1.0,
        0.0,
        0.0,
        0.0,
        0.0,
        1.0,
        0.0,
        0.0,
        0.2946939468383789,
        -2.999999761581421,
        1.0
      ],
      "name": "Rectangle1"
    },
    {
      "children": [
        4
      ],
      "matrix": [
        1.0,
        0.0,
        0.0,
        0.0,
        0.0,
        1.0,
        0.0,
        0.0,
        0.0,
        0.0,
        1.0,
        0.0,
        -22.509227752685547,
        -15.705709457397461,
        -0.0,
        1.0
      ],
      "name": "3DSMeshMatrix"
    },
    {
      "mesh": 0,
      "name": "Object_4"
    },
    {
      "children": [
        6
      ],
      "matrix": [
        -1.1920928955078125e-07,
        -1.0,
        2.9802322387695313e-08,
        0.0,
        -2.9802322387695313e-08,
        5.960464477539063e-08,
        1.0,
        0.0,
        -1.0,
        1.1920928955078125e-07,
        0.0,
        0.0,
        3.1262779235839844,
        -0.39971256256103516,
        -0.2290358543395996,
        1.0
      ],
      "name": "Line02"
    },
    {
      "children": [
        7
      ],
      "matrix": [
        -1.6292068494294222e-07,
        -4.3711388286736685e-08,
        -0.9999999999999716,
        0.0,
        -0.9999999999999735,
        7.121489319482232e-15,
        1.629206849429419e-07,
        0.0,
        -5.231355957868872e-22,
        0.9999999999999981,
        -4.371138828673784e-08,
        0.0,
        15.011307124551793,
        -2.77096278667838,
        25.63550335173972,
        1.0
      ],
      "name": "3DSMeshMatrix"
    },
    {
      "mesh": 1,
      "name": "Object_7"
    },
    {
      "children": [
        9
      ],
      "matrix": [
        1.0,
        0.0,
        0.0,
        0.0,
        0.0,
        0.0,
        1.0,
        0.0,
        0.0,
        -1.0,
        0.0,
        0.0,
        0.9687156677246094,
        -0.2413196563720703,
        -1.6681177616119385,
        1.0
      ],
      "name": "Circle09"
    },
    {
      "children": [
        10
      ],
      "matrix": [
        1.0,
        0.0,
        0.0,
        0.0,
        0.0,
        -4.371138828673784e-08,
        -0.999999999999998,
        0.0,
        0.0,
        0.999999999999998,
        -4.371138828673784e-08,
        0.0,
        -23.477943420410156,
        -1.331881336881014,
        15.169695912405393,
        1.0
      ],
      "name": "3DSMeshMatrix"
    },
    {
      "mesh": 2,
      "name": "Object_10"
    },
    {
      "children": [
        12
      ],
      "matrix": [
        1.0,
        0.0,
        0.0,
        0.0,
        0.0,
        0.0,
        1.0,
        0.0,
        0.0,
        -1.0,
        0.0,
        0.0,
        -3.4098339080810547,
        -0.2360830307006836,
        -1.6681177616119385,
        1.0
      ],
      "name": "Circle08"
    },
    {
      "children": [
        13
      ],
      "matrix": [
        1.0,
        0.0,
        0.0,
        0.0,
        0.0,
        -4.371138828673784e-08,
        -0.999999999999998,
        0.0,
        0.0,
        0.999999999999998,
        -4.371138828673784e-08,
        0.0,
        -19.099393844604492,
        -1.3318813366521138,
        15.17493253807678,
        1.0
      ],
      "name": "3DSMeshMatrix"
    },
    {
      "mesh": 3,
      "name": "Object_13"
    },
    {
      "children": [
        15
      ],
      "matrix": [
        1.0,
        0.0,
        0.0,
        0.0,
        0.0,
        0.0,
        1.0,
        0.0,
        0.0,
        -1.0,
        0.0,
        0.0,
        0.9691829681396484,
        -0.24167346954345703,
        1.736567735671997,
        1.0
      ],
      "name": "Circle07"
    },
    {
      "children": [
        16
      ],
      "matrix": [
        1.0,
        0.0,
        0.0,
        0.0,
        0.0,
        -4.371138828673784e-08,
        -0.999999999999998,
        0.0,
        0.0,
        0.999999999999998,
        -4.371138828673784e-08,
        0.0,
        -23.478410720825195,
        -4.736566834180408,
        15.169342248057536,
        1.0
      ],
      "name": "3DSMeshMatrix"
    },
    {
      "mesh": 4,
      "name": "Object_16"
    },
    {
      "children": [
        18
      ],
      "matrix": [
        1.0,
        0.0,
        0.0,
        0.0,
        0.0,
        0.0,
        1.0,
        0.0,
        0.0,
        -1.0,
        0.0,
        0.0,
        -3.4098339080810547,
        -0.2360830307006836,
        1.736567735671997,
        1.0
      ],
      "name": "Circle02"
    },
    {
      "children": [
        19
      ],
      "matrix": [
        1.0,
        0.0,
        0.0,
        0.0,
        0.0,
        -4.371138828673784e-08,
        -0.999999999999998,
        0.0,
        0.0,
        0.999999999999998,
        -4.371138828673784e-08,
        0.0,
        -19.099393844604492,
        -4.736566833936043,
        15.17493268690031,
        1.0
      ],
      "name": "3DSMeshMatrix"
    },
    {
      "mesh": 5,
      "name": "Object_19"
    },
    {
      "children": [
        21
      ],
      "matrix": [
        -1.1920928955078125e-07,
        -1.0,
        2.9802322387695313e-08,
        0.0,
        -2.9802322387695313e-08,
        5.960464477539063e-08,
        1.0,
        0.0,
        -1.0114833116531372,
        1.2057820697464194e-07,
        0.0,
        0.0,
        2.9780941009521484,
        -0.3747415542602539,
        -0.10021305084228516,
        1.0
      ],
      "name": "Line01"
    },
    {
      "children": [
        22
      ],
      "matrix": [
        -1.6292068912904056e-07,
        -4.371138904112262e-08,
        -0.9886470577212018,
        0.0,
        -0.9999999999999734,
        7.121489442387304e-15,
        1.6107105581076698e-07,
        0.0,
        -7.061157655262764e-22,
        0.999999999999998,
        -4.32151354185936e-08,
        0.0,
        15.029272509383082,
        -3.048209894224178,
        49.15060781134288,
        1.0
      ],
      "name": "3DSMeshMatrix"
    },
    {
      "mesh": 6,
      "name": "Object_22"
    },
    {
      "children": [
        24
      ],
      "matrix": [
        1.0,
        0.0,
        0.0,
        0.0,
        0.0,
        1.0,
        0.0,
        0.0,
        0.0,
        0.0,
        1.0,
        0.0,
        -1.2029399871826172,
        -0.20987224578857422,
        -2.019435167312622,
        1.0
      ],
      "name": "Rectangle0"
    },
    {
      "children": [
        25,
        26
      ],
      "matrix": [
        1.0,
        0.0,
        0.0,
        0.0,
        0.0,
        1.0,
        0.0,
        0.0,
        0.0,
        0.0,
        1.0,
        0.0,
        -21.30628776550293,
        -15.201143264770508,
        -0.9805645942687988,
        1.0
      ],
      "name": "3DSMeshMatrix"
    },
    {
      "mesh": 7,
      "name": "Object_25"
    },
    {
      "mesh": 8,
      "name": "Object_26"
    }
  ],
  "scene": 0,
  "scenes": [
    {
      "name": "Sketchfab_Scene",
      "nodes": [
        0
      ]
    }
  ]
}
